<?xml version="1.0" encoding="utf-8"?>
<!-- Generator: Adobe Illustrator 22.0.1, SVG Export Plug-In . SVG Version: 6.00 Build 0)  -->
<svg version="1.1" id="Vrstva_1" xmlns="http://www.w3.org/2000/svg" xmlns:xlink="http://www.w3.org/1999/xlink" x="0px" y="0px"
	 viewBox="0 0 40 40" style="enable-background:new 0 0 40 40;" xml:space="preserve">
<style type="text/css">
	.st0{fill:#F8CE5E;}
</style>
<g>
	<path class="st0" d="M21.4,1.9l4.8,9.8c0.2,0.5,0.7,0.8,1.2,0.9l10.8,1.6c1.3,0.2,1.8,1.8,0.9,2.7l-7.8,7.6
		c-0.4,0.4-0.5,0.9-0.5,1.4l1.8,10.8c0.2,1.3-1.1,2.3-2.3,1.7l-9.7-5.1c-0.5-0.2-1-0.2-1.5,0l-9.7,5.1c-1.2,0.6-2.5-0.4-2.3-1.7
		l1.8-10.8c0.1-0.5-0.1-1-0.5-1.4l-7.8-7.6c-0.9-0.9-0.4-2.5,0.9-2.7l10.8-1.6c0.5-0.1,1-0.4,1.2-0.9l4.8-9.8
		C19.2,0.7,20.8,0.7,21.4,1.9z"/>
</g>
</svg>
